<svg width="41" height="42" viewBox="0 0 41 42" fill="none" xmlns="http://www.w3.org/2000/svg">
<path d="M18.3918 25.5565L19.359 25.4957C19.8256 25.4661 20.1745 25.0654 20.1397 24.6013L18.8304 7.46342C18.7948 6.99869 18.3883 6.64561 17.9218 6.67522L16.9545 6.73604C16.488 6.76565 16.1377 7.16658 16.1733 7.63131L17.4826 24.7691C17.5188 25.233 17.9253 25.5861 18.3918 25.5565Z" fill="#F9B361"/>
<path opacity="0.19" d="M19.6412 24.7326L18.3173 7.39468C18.296 7.12118 18.3611 6.88073 18.4747 6.74491C18.6631 6.86186 18.8019 7.08978 18.8231 7.36328L20.1485 24.701C20.1688 24.9739 20.0656 25.2182 19.8966 25.3572C19.7636 25.237 19.6624 25.0061 19.6412 24.7326Z" fill="#FFF6F7"/>
<path d="M25.9981 26.9732L26.9575 27.1322C27.4198 27.2084 27.8528 26.8993 27.9242 26.4393L30.5544 9.50328C30.6253 9.04415 30.3092 8.60934 29.846 8.53249L28.8866 8.37352C28.4243 8.29727 27.9913 8.60636 27.9199 9.06635L25.2891 26.0033C25.2189 26.4615 25.5358 26.8969 25.9981 26.9732Z" fill="#F9B361"/>
<path opacity="0.19" d="M27.4072 26.4556L30.0678 9.3203C30.11 9.05039 30.2286 8.83169 30.3703 8.72516C30.5275 8.88196 30.6112 9.13461 30.5696 9.40368L27.9089 26.539C27.8667 26.8089 27.7104 27.0217 27.5134 27.1202C27.4118 26.9728 27.3649 26.7255 27.4072 26.4556Z" fill="#FFF6F7"/>
<path d="M17.6755 25.946L18.6188 25.73C19.0732 25.6257 19.3532 25.174 19.2428 24.7204L15.1776 7.98275C15.0678 7.52828 14.6097 7.2448 14.1544 7.34843L13.2116 7.56365C12.7566 7.66872 12.4775 8.12105 12.5879 8.57467L16.6525 25.3132C16.7621 25.7662 17.2202 26.0497 17.6755 25.946Z" fill="#F9B361"/>
<path opacity="0.19" d="M18.7721 24.9309L14.6603 7.99734C14.5954 7.73014 14.6216 7.48172 14.7103 7.32875C14.9151 7.41444 15.0886 7.61751 15.1541 7.88386L19.2659 24.8174C19.3308 25.0846 19.2682 25.3418 19.1243 25.5068C18.9742 25.4099 18.837 25.1981 18.7721 24.9309Z" fill="#FFF6F7"/>
<path d="M22.5283 25.8461L23.4983 25.8772C23.966 25.8921 24.3529 25.5264 24.362 25.0611L24.6964 7.89829C24.7055 7.43303 24.3331 7.04331 23.8654 7.02839L22.8949 6.99812C22.4272 6.9832 22.0409 7.34809 22.0317 7.81335L21.6974 24.9762C21.6891 25.4421 22.0607 25.8312 22.5283 25.8461Z" fill="#F9B361"/>
<path opacity="0.19" d="M23.8529 25.1454L24.1906 7.78222C24.1962 7.5084 24.2843 7.27502 24.4105 7.15038C24.5867 7.28516 24.7037 7.52442 24.6981 7.79823L24.3598 25.1623C24.3542 25.4361 24.2278 25.6681 24.0467 25.7914C23.9263 25.6586 23.8473 25.4192 23.8529 25.1454Z" fill="#FFF6F7"/>
<path d="M15.2866 28.6733L16.2305 28.4601C16.6852 28.3573 16.9661 27.9061 16.8571 27.4523L12.8428 10.7033C12.7338 10.2494 12.2769 9.96426 11.8222 10.067L10.8783 10.2802C10.4235 10.383 10.1427 10.8342 10.2511 11.2889L14.2654 28.0378C14.3744 28.4917 14.8313 28.7769 15.2866 28.6733Z" fill="#F9B361"/>
<path opacity="0.19" d="M16.3871 27.6622L12.3253 10.7167C12.2611 10.4487 12.2881 10.2008 12.3776 10.0485C12.5818 10.135 12.7548 10.3389 12.8188 10.6055L16.8806 27.551C16.9446 27.8176 16.8814 28.0756 16.7367 28.2401C16.5877 28.1414 16.4511 27.9288 16.3871 27.6622Z" fill="#FFF6F7"/>
<path d="M24.4265 27.8196L25.3956 27.8814C25.8631 27.9112 26.2615 27.5584 26.2851 27.0943L27.1675 9.95658C27.1917 9.49162 26.832 9.09068 26.3653 9.06142L25.3962 8.99959C24.9286 8.96974 24.5303 9.32261 24.5067 9.78672L23.6234 26.9238C23.6001 27.3894 23.9589 27.7897 24.4265 27.8196Z" fill="#F9B361"/>
<path opacity="0.19" d="M25.7725 27.1611L26.6661 9.82467C26.6806 9.55075 26.7762 9.32125 26.9061 9.20041C27.0788 9.3403 27.1877 9.58398 27.1729 9.85646L26.2796 27.1944C26.2656 27.4674 26.1317 27.6956 25.9458 27.813C25.8297 27.6757 25.758 27.435 25.7725 27.1611Z" fill="#FFF6F7"/>
<path d="M20.7726 27.6028L21.7414 27.5618C22.209 27.5417 22.5667 27.1483 22.5401 26.6835L21.5844 9.52728C21.5583 9.06159 21.158 8.70146 20.6909 8.72072L19.7222 8.7617C19.2554 8.7824 18.8976 9.17571 18.9229 9.64081L19.8791 26.7962C19.9052 27.2619 20.3049 27.6229 20.7726 27.6028Z" fill="#F9B361"/>
<path opacity="0.19" d="M22.039 26.8057L21.0716 9.44878C21.057 9.17484 21.1276 8.93565 21.2432 8.80246C21.4292 8.9228 21.5633 9.15379 21.5785 9.42688L22.5459 26.7838C22.5611 27.0569 22.4521 27.2984 22.2811 27.4348C22.1504 27.3113 22.0541 27.0788 22.039 26.8057Z" fill="#FFF6F7"/>
<path d="M31.2891 14.3621C30.0745 14.3254 28.9015 14.9015 28.1526 15.9065C26.4574 18.1837 23.4169 19.5478 20.1503 19.208C17.3311 18.9144 14.994 17.421 13.7112 15.3676C13.0892 14.3724 12.0149 13.7756 10.849 13.7399L10.2951 13.7232C9.62835 13.7029 9.10733 14.2379 9.20651 14.8426L10.3836 22.0276L12.1108 33.683C12.1796 34.1492 12.556 34.4667 12.9786 34.4143L18.6604 33.7133C19.2618 33.6388 19.8664 33.6352 20.4644 33.7021L26.948 34.4226C27.3817 34.4704 27.7905 34.1485 27.9039 33.6698L30.0107 24.7239L32.3444 15.6213C32.5069 14.9937 31.9951 14.3844 31.2891 14.3621Z" fill="#F94A3D"/>
<path d="M13.6258 22.124L12.4487 14.939C12.4082 14.6936 12.4744 14.4626 12.606 14.2729C12.0856 13.9491 11.4828 13.76 10.8498 13.7403L10.2959 13.7236C9.62914 13.7033 9.10813 14.2383 9.2073 14.843L10.3844 22.028L12.1116 33.6834C12.1804 34.1496 12.5568 34.4671 12.9794 34.4147L15.4656 34.1082C15.4109 34.0106 15.3711 33.9007 15.353 33.7794L13.6258 22.124Z" fill="#FF7664"/>
</svg>
